<?xml version="1.0" standalone="no"?>
<!DOCTYPE svg PUBLIC "-//W3C//DTD SVG 20010904//EN"
 "http://www.w3.org/TR/2001/REC-SVG-20010904/DTD/svg10.dtd">
<svg version="1.0" xmlns="http://www.w3.org/2000/svg"
 width="1280.000000pt" height="936.000000pt" viewBox="0 0 1280.000000 936.000000"
 preserveAspectRatio="xMidYMid meet">
<metadata>
Created by potrace 1.15, written by Peter Selinger 2001-2017
</metadata>
<g transform="translate(0.000000,936.000000) scale(0.100000,-0.100000)"
fill="#FFFF00" stroke="none">
<path d="M4365 9350 c-498 -38 -961 -143 -1415 -322 -173 -68 -518 -240 -683
-340 -1240 -752 -2058 -2015 -2231 -3443 -125 -1033 95 -2074 625 -2960 398
-664 941 -1210 1606 -1613 165 -100 510 -272 683 -340 214 -84 460 -161 660
-207 627 -144 1252 -162 1874 -55 1126 193 2143 796 2860 1694 135 168 317
430 305 439 -2 2 -894 559 -1981 1238 -1088 679 -1978 1236 -1978 1239 0 3
890 560 1978 1239 1087 679 1979 1236 1981 1238 12 9 -173 275 -314 450 -308
384 -671 714 -1087 987 -632 414 -1333 663 -2089 741 -183 19 -625 27 -794 15z"/>
</g>
</svg>
